<svg width="137" height="108" viewBox="0 0 137 108" fill="none" xmlns="http://www.w3.org/2000/svg">
<path d="M27.2432 65.6848L19.3046 49.5516L27.2432 46.0945L35.6939 51.9844L36.9743 43.0216L44.1446 40.9729L48.3699 58.7706L42.224 60.3071L40.8155 53.0087L36.9743 58.7706L30.4442 54.9294L33.005 63.3801L27.2432 65.6848Z" fill="#00A3FF"/>
<path fill-rule="evenodd" clip-rule="evenodd" d="M15.129 48.0197L27.5942 42.5913L33.3605 46.6103L34.2171 40.6143L46.3949 37.1349L52.0643 61.0153L39.8245 64.0753L39.2206 60.9456L37.923 62.8921L35.6695 61.5665L36.7664 65.1864L25.7454 69.5948L15.129 48.0197ZM30.4473 54.9294L36.9774 58.7706L40.8186 53.0087L42.227 60.3071L48.373 58.7706L44.1476 40.9729L36.9774 43.0216L35.6969 51.9844L27.2462 46.0945L19.3077 49.5516L27.2462 65.6848L33.0081 63.3801L30.4473 54.9294Z" fill="#00A3FF"/>
<path fill-rule="evenodd" clip-rule="evenodd" d="M52.468 39.6929L50.5474 58.1308L55.1569 57.3625V51.6007L59.3822 50.4483L63.3515 55.3139L67.3207 53.1372L58.1018 38.1564L52.468 39.6929ZM55.0288 47.3753L55.4129 43.406L57.4616 46.6071L55.0288 47.3753Z" fill="#00A3FF"/>
<path fill-rule="evenodd" clip-rule="evenodd" d="M49.6283 37.2819L53.0062 36.3607L53.2091 34.2639L54.3214 36.002L59.5118 34.5864L71.6299 54.2783L62.5856 59.238L58.2625 53.9387L58.2286 53.9479V59.9659L47.0717 61.8253L49.6283 37.2819ZM59.381 50.4484L55.1556 51.6008V57.3626L50.5461 58.1309L52.4668 39.693L58.1006 38.1565L67.3195 53.1373L63.3502 55.314L59.381 50.4484ZM57.4604 46.6072L55.0276 47.3755L55.4117 43.4062L57.4604 46.6072Z" fill="#00A3FF"/>
<path fill-rule="evenodd" clip-rule="evenodd" d="M104.724 53.7869L116.01 68.4928L110.342 70.2944L107.269 65.1728L103.626 66.3252L103.626 72.7937L99.1043 73.0163L99.1194 55.4261L104.724 53.7869ZM105.732 62.3559L102.916 58.3866L102.916 62.3559L105.732 62.3559Z" fill="#00A3FF"/>
<path fill-rule="evenodd" clip-rule="evenodd" d="M105.882 50.2467L101.763 51.4514L99.8432 48.7467L99.8432 52.0128L96.0491 53.1225L96.0291 76.2443L106.699 75.719L106.699 70.1951L108.958 73.959L121.115 70.0951L105.882 50.2467ZM103.626 66.3251L103.626 72.7936L99.1049 73.0162L99.12 55.4261L104.725 53.7868L116.011 68.4927L110.343 70.2944L107.27 65.1727L103.626 66.3251ZM105.733 62.3558L102.916 62.3558L102.916 58.3866L105.733 62.3558Z" fill="#00A3FF"/>
<path fill-rule="evenodd" clip-rule="evenodd" d="M70.135 57.4905L65.988 76.203L70.6509 75.8941L71.6715 69.7824L75.5389 69.4313L79.0078 74.6653L83.1728 72.8916L74.3604 56.7222L70.135 57.4905ZM71.6715 66.1973L72.285 62.0312L74.3604 66.1973L71.6715 66.1973Z" fill="#00A3FF"/>
<path fill-rule="evenodd" clip-rule="evenodd" d="M67.5767 54.8319L70.3125 54.3344L70.6711 51.899L71.7538 54.0724L75.9959 53.3011L87.4908 74.3923L77.8592 78.4941L74.2433 73.0384L73.2813 78.7991L62.101 79.5398L67.5767 54.8319ZM75.539 69.4309L79.008 74.6649L83.1729 72.8911L74.3605 56.7218L70.1351 57.49L65.9881 76.2025L70.651 75.8936L71.6716 69.782L75.539 69.4309ZM74.3605 66.1968L71.6716 66.1968L72.2851 62.0308L74.3605 66.1968Z" fill="#00A3FF"/>
<path d="M62.972 42.4773L61.9695 36.975L70.9208 33.61L73.2392 41.4291L77.1501 33.0651L82.3098 32.9295L77.6761 43.4096L82.6162 49.4281L91.1893 48.5991L90.763 52.9316L80.2659 53.6999L73.732 46.8813L73.8655 50.7542L68.8143 55.0175L67.6681 39.2083L62.972 42.4773Z" fill="#00A3FF"/>
<path fill-rule="evenodd" clip-rule="evenodd" d="M58.4869 35.0014L72.9293 29.5722L73.8848 32.7946L75.1714 30.043L87.0849 29.73L81.2521 42.9221L83.9522 46.2116L94.614 45.1807L93.5683 55.8074L79.0484 56.8702L75.6214 53.2939L66.1861 61.2573L64.994 44.8143L60.8059 47.7297L58.4869 35.0014ZM67.6686 39.2083L68.8148 55.0175L73.8661 50.7541L73.7325 46.8812L80.2665 53.6998L90.7635 52.9315L91.1898 48.5991L82.6167 49.428L77.6766 43.4096L82.3103 32.9295L77.1506 33.065L73.2398 41.429L70.9214 33.61L61.9701 36.9749L62.9725 42.4773L67.6686 39.2083Z" fill="#00A3FF"/>
<path fill-rule="evenodd" clip-rule="evenodd" d="M96.8838 38.3494L87.217 39.075C87.2287 40.5416 87.3558 43.1016 90.0952 43.4821C92.8851 43.8696 93.5422 42.9312 94.1873 42.01C94.3339 41.8006 94.48 41.592 94.6503 41.4002L97.0704 44.451C96.5549 45.3705 92.5125 47.6701 89.5843 47.16C85.924 46.5223 82.6689 42.9677 82.9051 38.476C83.2544 31.8308 86.8666 30.6683 89.6832 30.6271C93.051 30.5779 97.7841 31.8679 96.8838 38.3494ZM90.1406 33.3942C88.0832 33.3153 87.3222 35.0711 87.1989 35.9588L93.1561 35.8814C93.2794 34.9936 92.7123 33.4929 90.1406 33.3942Z" fill="#00A3FF"/>
<path fill-rule="evenodd" clip-rule="evenodd" d="M87.8544 42.1086C87.5821 41.6638 87.4272 41.1581 87.3388 40.6581C87.2383 40.0902 87.2236 39.5298 87.2199 39.0746L96.8867 38.349C97.4052 34.6164 96.0554 32.6056 94.174 31.5807C92.967 30.9232 91.5412 30.6715 90.2495 30.6313C90.0584 30.6254 89.8702 30.6241 89.6861 30.6268C88.8786 30.6386 88.0056 30.7426 87.1629 31.0415C85.0664 31.7852 83.1571 33.7356 82.908 38.4757C82.6719 42.9673 85.927 46.5219 89.5872 47.1596C91.1567 47.4331 93.0463 46.8993 94.5413 46.2034C94.8709 46.05 95.1814 45.8888 95.465 45.7265C96.2949 45.2517 96.8951 44.7686 97.0733 44.4506L94.6532 41.3998C94.5923 41.4684 94.5344 41.5392 94.4786 41.6114C94.3783 41.741 94.2844 41.8751 94.1902 42.0096C93.7743 42.6035 93.3535 43.2045 92.3594 43.4529C91.8115 43.5897 91.0894 43.6195 90.0981 43.4818C88.9572 43.3233 88.2694 42.7868 87.8544 42.1086ZM93.159 35.8811C93.1735 35.7768 93.1785 35.6641 93.1718 35.5462C93.1684 35.4864 93.162 35.4251 93.1523 35.363C93.0906 34.9673 92.8957 34.5347 92.4956 34.1755C92.0289 33.7566 91.283 33.4376 90.1435 33.3939C89.9982 33.3883 89.8593 33.3919 89.7267 33.4036C89.2104 33.4495 88.7886 33.6197 88.4476 33.8579C87.6363 34.4249 87.2825 35.3776 87.2018 35.9585L93.159 35.8811ZM99.5893 41.2278L98.5038 41.3093L100.762 44.1556L99.7538 45.9535C99.449 46.4971 99.0438 46.8969 98.7859 47.1303C98.4872 47.4007 98.1551 47.6516 97.8217 47.8775C97.1531 48.3306 96.3386 48.7778 95.4596 49.1597C93.8073 49.8775 91.3978 50.5943 89.0598 50.187C83.9162 49.2909 79.5189 44.4075 79.8392 38.3143C80.0421 34.4554 81.235 31.5948 83.3584 29.7532C85.432 27.9548 87.8815 27.5799 89.6411 27.5541C91.611 27.5253 94.4519 27.8595 96.7389 29.5866C99.2971 31.5185 100.501 34.6668 99.9305 38.7718L99.5893 41.2278Z" fill="#00A3FF"/>
<path fill-rule="evenodd" clip-rule="evenodd" d="M97.9221 30.1477L99.0745 51.7777H102.788L103.556 43.327L110.086 51.7777L114.695 48.3206L106.629 40.1259C108.934 40.382 113.023 38.525 112.391 34.3731C111.494 28.4832 107.525 26.1785 97.9221 30.1477ZM102.788 37.0619V32.1964C103.204 32.1964 103.592 32.1852 103.953 32.1748C106.033 32.1149 107.198 32.0814 107.525 34.3731C107.832 36.5242 104.495 37.0619 102.788 37.0619Z" fill="#00A3FF"/>
<path fill-rule="evenodd" clip-rule="evenodd" d="M94.7389 28.1389L96.7494 27.3078C101.705 25.2595 106.019 24.452 109.448 25.6667C113.261 27.0169 114.895 30.3973 115.43 33.9109C115.936 37.2373 114.482 39.7966 112.491 41.3345C112.423 41.3871 112.354 41.4388 112.284 41.4893L119.352 48.67L109.508 56.0536L105.909 51.3967L105.595 54.8508H96.162L94.7389 28.1389ZM103.557 43.3271L110.087 51.7778L114.697 48.3207L106.63 40.1261C107.625 40.2366 108.953 39.9531 110.09 39.2609C111.586 38.3502 112.751 36.732 112.392 34.3732C111.587 29.086 108.306 26.6878 100.697 29.1235C100.378 29.2257 100.051 29.3365 99.7158 29.4559C99.1414 29.6608 98.5441 29.8912 97.9232 30.1478L99.0756 51.7778H102.789L103.557 43.3271ZM105.862 36.5444C106.897 36.1435 107.683 35.4669 107.526 34.3732C107.318 32.9137 106.77 32.3973 105.862 32.2302C105.789 32.2168 105.714 32.2057 105.637 32.1965C105.164 32.1401 104.603 32.1562 103.954 32.1749C103.593 32.1853 103.205 32.1965 102.789 32.1965V37.062C103.364 37.062 104.123 37.0011 104.866 36.8382C105.208 36.7632 105.546 36.6666 105.862 36.5444Z" fill="#00A3FF"/>
<path d="M45.5472 67.4792L44.3643 63.5045C39.2957 63.2847 33.3661 64.3441 31.7404 68.569C30.1146 72.794 32.5288 74.4059 33.8422 75.5205C35.1556 76.6351 41.1365 75.9564 40.6323 77.9626C40.2289 79.5675 35.6333 80.4898 33.3859 80.7503L35.0421 84.4027C36.7111 84.005 40.7541 82.8817 43.5746 81.5705C47.1001 79.9314 46.9013 77.5034 45.7698 73.9093C44.6383 70.3153 36.3424 72.9863 36.5243 70.5069C36.6698 68.5233 42.6002 67.6619 45.5472 67.4792Z" fill="#00A3FF"/>
<path fill-rule="evenodd" clip-rule="evenodd" d="M46.6866 60.5295L49.5966 70.3073L47.0039 70.4681C47.7229 71.0583 48.3513 71.8709 48.7026 72.9868C49.2617 74.7628 49.8529 76.9567 49.4347 79.0698C48.9414 81.5625 47.2424 83.2551 44.8717 84.3573C41.7693 85.7996 37.4886 86.9794 35.756 87.3922L33.2914 87.9796L28.8491 78.1831L31.825 77.8381C31.7815 77.8019 31.7293 77.7595 31.6696 77.711C31.0841 77.2358 29.7812 76.1782 28.9726 74.6449C27.9236 72.6558 27.8015 70.2528 28.874 67.4657C30.1463 64.1593 33.0145 62.3714 35.7997 61.4521C38.5948 60.5295 41.7488 60.3154 44.499 60.4346L46.6866 60.5295ZM38.0338 76.4234C38.0427 76.4247 38.0517 76.4259 38.0606 76.4272C39.596 76.648 40.8786 76.9893 40.6339 77.9629C40.4703 78.6139 39.6169 79.1525 38.5103 79.5803C38.4831 79.5908 38.4557 79.6013 38.4281 79.6117C37.8345 79.8357 37.1726 80.0286 36.5076 80.1904C35.3669 80.468 34.2172 80.6544 33.3875 80.7506L35.0437 84.403C36.7127 84.0052 40.7558 82.882 43.5762 81.5707C47.1017 79.9317 46.9029 77.5036 45.7714 73.9096C45.1553 71.9525 42.4149 71.8531 40.0757 71.7683C39.8463 71.7599 39.6207 71.7518 39.4014 71.742C39.3452 71.7395 39.2894 71.7369 39.234 71.7341C37.6634 71.6562 36.4553 71.4701 36.5259 70.5071C36.58 69.7699 37.4333 69.1876 38.6356 68.7377C38.7269 68.7034 38.8204 68.67 38.9156 68.6373C39.96 68.2788 41.2232 68.011 42.4442 67.8208C43.5875 67.6426 44.6937 67.5325 45.5488 67.4795L44.3659 63.5047C39.2973 63.285 33.3678 64.3444 31.742 68.5693C30.2219 72.5196 32.2336 74.1855 33.5752 75.2965C33.6684 75.3738 33.7585 75.4483 33.8439 75.5208C34.3753 75.9718 35.6711 76.1292 36.9921 76.2897C37.3421 76.3322 37.6939 76.3749 38.0338 76.4234Z" fill="#00A3FF"/>
<path d="M51.9554 78.617L48.7544 62.0998L52.9798 60.4352L54.0041 66.9653L58.6136 66.3251L57.8453 58.7707L63.7352 58.1305V76.6964H59.894L59.3818 69.7822L54.6443 70.5505L55.6686 77.9768L51.9554 78.617Z" fill="#00A3FF"/>
<path fill-rule="evenodd" clip-rule="evenodd" d="M45.25 60.1769L54.5262 56.5226L54.4777 56.0455L66.8066 54.7054V79.7695H59.0163L59.1171 80.5004L49.5096 82.1568L45.25 60.1769ZM59.8923 76.6965H63.7336V58.1305L57.8437 58.7708L58.6119 66.3252L54.0025 66.9654L52.9781 60.4353L48.7528 62.0998L51.9538 78.6171L55.667 77.9769L54.6427 70.5505L59.3802 69.7823L59.8923 76.6965Z" fill="#00A3FF"/>
<path d="M85.2441 74.52L82.8113 56.7223L87.9329 55.4419L88.5731 68.5021L95.6154 66.9656L97.1519 73.8798L85.2441 74.52Z" fill="#00A3FF"/>
<path fill-rule="evenodd" clip-rule="evenodd" d="M79.3955 54.4091L90.8209 51.5527L91.4667 64.7258L97.9531 63.3106L100.94 76.7535L82.5847 77.7404L79.3955 54.4091ZM88.5751 68.502L87.9349 55.4418L82.8133 56.7222L85.246 74.5199L97.1538 73.8797L95.6174 66.9655L88.5751 68.502Z" fill="#00A3FF"/>
<path d="M102.146 39.4366L52.5941 48.5276C51.6722 55.8003 61.2582 69.7397 66.1665 75.8003H77.6901L102.146 68.758V39.4366Z" fill="#00A3FF"/>
<path d="M27.2432 65.6848L19.3046 49.5516L27.2432 46.0945L35.6939 51.9844L36.9743 43.0216L44.1446 40.9729L48.3699 58.7706L42.224 60.3071L40.8155 53.0087L36.9743 58.7706L30.4442 54.9294L33.005 63.3801L27.2432 65.6848Z" fill="#FAFAFF"/>
<path fill-rule="evenodd" clip-rule="evenodd" d="M52.468 39.6929L50.5474 58.1308L55.1569 57.3625V51.6007L59.3822 50.4483L63.3515 55.3139L67.3207 53.1372L58.1018 38.1564L52.468 39.6929ZM55.0288 47.3753L55.4129 43.406L57.4616 46.6071L55.0288 47.3753Z" fill="#FAFAFF"/>
<path fill-rule="evenodd" clip-rule="evenodd" d="M104.724 53.7869L116.01 68.4928L110.342 70.2944L107.269 65.1728L103.626 66.3252L103.626 72.7937L99.1043 73.0163L99.1194 55.4261L104.724 53.7869ZM105.732 62.3559L102.916 58.3866L102.916 62.3559L105.732 62.3559Z" fill="#FAFAFF"/>
<path fill-rule="evenodd" clip-rule="evenodd" d="M70.135 57.4905L65.988 76.203L70.6509 75.8941L71.6715 69.7824L75.5389 69.4313L79.0078 74.6653L83.1728 72.8916L74.3604 56.7222L70.135 57.4905ZM71.6715 66.1973L72.285 62.0312L74.3604 66.1973L71.6715 66.1973Z" fill="#FAFAFF"/>
<path d="M62.972 42.4773L61.9695 36.975L70.9208 33.61L73.2392 41.4291L77.1501 33.0651L82.3098 32.9295L77.6761 43.4096L82.6162 49.4281L91.1893 48.5991L90.763 52.9316L80.2659 53.6999L73.732 46.8813L73.8655 50.7542L68.8143 55.0175L67.6681 39.2083L62.972 42.4773Z" fill="#FAFAFF"/>
<path fill-rule="evenodd" clip-rule="evenodd" d="M96.8838 38.3494L87.217 39.075C87.2287 40.5416 87.3558 43.1016 90.0952 43.4821C92.8851 43.8696 93.5422 42.9312 94.1873 42.01C94.3339 41.8006 94.48 41.592 94.6503 41.4002L97.0704 44.451C96.5549 45.3705 92.5125 47.6701 89.5843 47.16C85.924 46.5223 82.6689 42.9677 82.9051 38.476C83.2544 31.8308 86.8666 30.6683 89.6832 30.6271C93.051 30.5779 97.7841 31.8679 96.8838 38.3494ZM90.1406 33.3942C88.0832 33.3153 87.3222 35.0711 87.1989 35.9588L93.1561 35.8814C93.2794 34.9936 92.7123 33.4929 90.1406 33.3942Z" fill="#FAFAFF"/>
<path fill-rule="evenodd" clip-rule="evenodd" d="M97.9221 30.1477L99.0745 51.7777H102.788L103.556 43.327L110.086 51.7777L114.695 48.3206L106.629 40.1259C108.934 40.382 113.023 38.525 112.391 34.3731C111.494 28.4832 107.525 26.1785 97.9221 30.1477ZM102.788 37.0619V32.1964C103.204 32.1964 103.592 32.1852 103.953 32.1748C106.033 32.1149 107.198 32.0814 107.525 34.3731C107.832 36.5242 104.495 37.0619 102.788 37.0619Z" fill="#FAFAFF"/>
<path d="M45.5467 67.4793L44.3638 63.5045C39.2951 63.2848 33.3656 64.3442 31.7399 68.5691C30.6326 71.4467 31.2975 74.5197 33.7731 75.6721C36.5238 76.9525 41.0715 73.8795 41.5836 77.0806C41.8451 78.7146 35.1242 78.6126 32.8768 78.8731L35.0416 84.4028C36.7106 84.0051 40.7536 82.8818 43.574 81.5705C47.0995 79.9315 49.0675 77.9908 47.6015 74.5197C45.5467 69.6542 36.3419 72.9864 36.5238 70.5069C36.6693 68.5234 42.5997 67.662 45.5467 67.4793Z" fill="#FAFAFF"/>
<path d="M51.9554 78.617L48.7544 62.0998L52.9798 60.4352L54.0041 66.9653L58.6136 66.3251L57.8453 58.7707L63.7352 58.1305V76.6964H59.894L59.3818 69.7822L54.6443 70.5505L55.6686 77.9768L51.9554 78.617Z" fill="#FAFAFF"/>
<path d="M85.2441 74.52L82.8113 56.7223L87.9329 55.4419L88.5731 68.5021L95.6154 66.9656L97.1519 73.8798L85.2441 74.52Z" fill="#FAFAFF"/>
<path d="M72.4504 0.0240292C66.0995 0.43376 60.6706 14.6207 58.75 21.6629C57.5976 27.126 56.4452 34.7743 61.0547 21.6629C65.6642 8.55155 71.426 5.18835 73.7308 5.14568C77.3159 6.04196 77.444 13.7244 78.2122 10.5234C78.9804 7.32236 80.3889 -0.488134 72.4504 0.0240292Z" fill="#00A3FF"/>
<path d="M80.4072 18.3585C80.6758 17.9414 81.3213 18.1117 81.3491 18.607L81.4657 20.6779C81.4781 20.8994 81.6318 21.0877 81.8464 21.1443L83.8519 21.6734C84.3316 21.8 84.3692 22.4665 83.9067 22.6461L81.9732 23.3969C81.7663 23.4772 81.6347 23.6815 81.6472 23.9031L81.7637 25.9739C81.7916 26.4693 81.1693 26.7109 80.8556 26.3266L79.5441 24.7197C79.4038 24.5478 79.1688 24.4858 78.9619 24.5661L77.0284 25.3169C76.5659 25.4965 76.1438 24.9793 76.4124 24.5622L77.5354 22.8183C77.6555 22.6318 77.6418 22.3891 77.5015 22.2172L76.19 20.6103C75.8763 20.2259 76.2377 19.6647 76.7174 19.7912L78.723 20.3203C78.9375 20.3769 79.1641 20.289 79.2842 20.1024L80.4072 18.3585Z" fill="#00A3FF"/>
<path d="M0.886009 40.9889C0.09863 46.3507 7.3026 50.7041 8.18434 49.4396C9.44551 47.6311 3.8118 44.1312 6.24459 40.9889C8.93344 37.5159 26.7503 39.4524 27.0064 37.9159C27.2625 36.3794 22.5249 35.7392 14.7144 35.8673C6.90395 35.9953 1.50245 36.7911 0.886009 40.9889Z" fill="#00A3FF"/>
<path d="M125.839 12.2892C121.742 9.21624 110.047 16.1305 104.712 19.9717C102.92 24.197 119.693 12.0709 123.406 16.6426C127.119 21.2143 117.004 32.2636 119.693 32.5197C122.382 32.7758 130.961 16.1305 125.839 12.2892Z" fill="#00A3FF"/>
<path d="M12.7092 101.411C16.8065 104.484 28.5009 97.5699 33.836 93.7286C35.6286 89.5033 18.8552 101.629 15.142 97.0577C11.4288 92.486 21.5441 81.4367 18.8552 81.1806C16.1663 80.9246 7.58759 97.5699 12.7092 101.411Z" fill="#00A3FF"/>
<path d="M134.977 78.6977C136.728 73.8849 126.717 64.7009 121.493 60.7105C116.929 60.2216 133.867 72.7124 130.57 77.5927C127.273 82.473 113.508 77.0805 113.833 78.6885C114.369 81.336 132.788 84.7138 134.977 78.6977Z" fill="#00A3FF"/>
<path d="M65.1941 103.235C61.2248 102.594 59.6883 93.8876 58.0238 94.5278C57.5117 98.6251 60.9688 107.332 65.1941 107.972C69.4195 108.612 74.9252 98.1129 73.6448 97.4727C72.3644 96.8325 69.1634 103.875 65.1941 103.235Z" fill="#00A3FF"/>
<path d="M22.6337 75.416C22.6337 76.3353 21.8885 77.0805 20.9692 77.0805C20.0499 77.0805 19.3046 76.3353 19.3046 75.416C19.3046 74.4967 20.0499 73.7515 20.9692 73.7515C21.8885 73.7515 22.6337 74.4967 22.6337 75.416Z" fill="#00A3FF"/>
<path fill-rule="evenodd" clip-rule="evenodd" d="M76.3791 82.5141C75.3171 83.2979 74.4904 84.7412 74.4904 86.6835C74.4904 88.366 75.0143 89.3803 75.6085 90.019C76.2242 90.6808 76.9964 91.0247 77.6044 91.2089C78.1458 91.373 78.4517 91.9449 78.2876 92.4863C78.1236 93.0277 77.5517 93.3336 77.0103 93.1695C76.2098 92.927 75.0614 92.4386 74.1086 91.4145C73.1343 90.3673 72.4418 88.8422 72.4418 86.6835C72.4418 84.1443 73.5357 82.0665 75.1625 80.8658C76.7921 79.663 78.9462 79.364 80.8682 80.4051C82.552 81.3172 83.623 82.4204 84.2153 83.6445C84.8058 84.8649 84.8713 86.1036 84.7247 87.203C84.5642 88.407 83.6143 89.586 82.4228 90.2219C81.1591 90.8963 79.4922 91.0357 77.8915 89.9686C76.4222 88.9891 75.8228 87.4578 76.0039 86.1C76.1833 84.7545 77.1904 83.4825 78.8438 83.4825C79.4095 83.4825 79.8681 83.9411 79.8681 84.5068C79.8681 85.0725 79.4095 85.5311 78.8438 85.5311C78.4486 85.5311 78.1113 85.7956 78.0346 86.3707C77.9595 86.9335 78.1924 87.707 79.0279 88.264C79.924 88.8614 80.7749 88.7792 81.4583 88.4145C82.214 88.0112 82.6405 87.3336 82.694 86.9322C82.8035 86.111 82.741 85.3011 82.3712 84.5368C82.0032 83.7763 81.2816 82.959 79.8924 82.2065C78.7414 81.583 77.4384 81.7322 76.3791 82.5141Z" fill="#00A3FF"/>
<path d="M36.078 53.9055L35.6939 51.9849L27.2432 46.095L19.3046 49.5521L27.2432 65.6852L28.1395 65.3011L21.7374 50.5764L27.2432 48.1436L36.078 53.9055Z" fill="#FAFAFF"/>
<path d="M86.5245 72.8552L84.4758 56.3379L82.8113 56.7221L85.2441 74.5198L97.1519 73.8796L96.6397 71.5748L86.5245 72.8552Z" fill="#FAFAFF"/>
<path d="M100.353 51.7285L99.3286 29.5774L97.9201 30.0896L99.0725 51.7285H100.353Z" fill="#FAFAFF"/>
<path d="M103.428 41.8694L103.556 43.4059L110.086 51.7285L112.007 50.3201L103.428 41.8694Z" fill="#FAFAFF"/>
<path d="M41.8422 51.7283L40.8179 53.0087L42.2263 60.307L44.0189 59.7948L41.8422 51.7283Z" fill="#FAFAFF"/>
<path d="M108.421 34.059C108.293 32.3945 106.287 32.053 105.476 32.1384C106.757 32.6505 107.397 32.9066 107.397 34.3151C107.397 35.8511 106.202 36.564 105.348 36.7478C107.269 36.3637 108.579 36.1175 108.421 34.059Z" fill="#FAFAFF"/>
<path d="M41.7349 44.093L38.8978 44.7605C38.5036 44.8533 38.126 44.5542 38.126 44.1492C38.126 43.8624 38.3204 43.612 38.5984 43.5409L42.8514 42.4529C43.2763 42.3442 43.7058 42.6127 43.7942 43.0423L44.4113 46.0397C44.4789 46.3678 44.3017 46.6972 43.9906 46.8216C43.5989 46.9783 43.1594 46.7509 43.0609 46.3407L42.6579 44.6615C42.5592 44.2502 42.1466 43.9961 41.7349 44.093Z" fill="#FAFAFF"/>
<path d="M43.887 48.7837C43.6821 47.9642 43.9724 47.5887 44.1431 47.5033C44.3992 47.5033 44.6553 47.5033 44.9113 48.3996C45.1674 49.2959 45.0394 49.808 44.7833 49.808C44.5272 49.808 44.1431 49.808 43.887 48.7837Z" fill="#FAFAFF"/>
<path d="M109.06 29.5774C108.24 28.9629 106.584 28.8092 105.859 28.8092C104.706 29.5774 107.267 29.5774 108.675 30.3457C110.084 31.1139 110.212 33.1626 110.724 32.5224C111.236 31.8822 110.084 30.3457 109.06 29.5774Z" fill="#FAFAFF"/>
<path d="M111.621 34.1868C111.621 33.6747 111.237 33.1625 110.853 33.2905C110.597 33.4186 110.853 33.9307 110.853 34.3149C110.853 34.699 111.237 35.4672 111.493 35.3392C111.749 35.2112 111.621 34.699 111.621 34.1868Z" fill="#FAFAFF"/>
<path d="M95.1059 67.7333C94.3377 67.426 92.6732 67.9894 92.9293 68.5015C93.0573 68.7576 94.3377 68.1174 94.7218 68.2454C95.1059 68.3735 95.1059 70.5502 95.4901 70.5502C96.143 70.5502 95.7462 67.9894 95.1059 67.7333Z" fill="#FAFAFF"/>
<path d="M69.2405 36.4917L62.3263 39.0525L62.9665 42.3816L67.576 39.1806L68.8564 54.9296L71.5453 52.6249L69.2405 36.4917Z" fill="#FAFAFF"/>
<path d="M73.5939 44.0461L73.722 46.863L80.2521 53.6492L90.7514 52.8809L91.0075 50.7042L81.5325 51.3444L73.5939 44.0461Z" fill="#FAFAFF"/>
<path d="M100.868 72.9227V54.9296L99.0751 55.4417V73.0058L100.868 72.9227Z" fill="#FAFAFF"/>
<path d="M102.917 56.7222V58.3867L105.734 62.356L107.399 62.2279L102.917 56.7222Z" fill="#FAFAFF"/>
<path d="M108.935 64.6607L107.271 65.1729L110.344 70.2945L112.777 69.5263L108.935 64.6607Z" fill="#FAFAFF"/>
<path d="M32.8773 72.2153C31.981 68.8862 34.9686 65.5999 36.0783 64.6609C33.5175 65.4291 30.4445 67.7339 31.3408 72.7275C32.0578 76.7223 36.5905 76.1846 37.6148 75.8005C35.182 75.5444 33.5958 74.8843 32.8773 72.2153Z" fill="#FAFAFF"/>
<path d="M36.3337 83.0984L35.0533 84.3788L32.8766 78.873C39.1506 78.6169 41.1992 77.8487 41.4553 77.3365C41.6602 76.9268 41.1139 76.1415 40.8151 75.8C42.9918 75.8 43.8881 77.4646 42.7357 78.873C41.8138 79.9998 37.4007 80.1961 35.4374 80.2815L36.3337 83.0984Z" fill="#FAFAFF"/>
<path d="M53.4919 78.2332L50.4189 61.4598L48.7544 62.1L51.9554 78.6173L53.4919 78.2332Z" fill="#FAFAFF"/>
<path d="M54.2602 68.5021L54.0041 66.9656L58.6136 66.3254L57.8453 58.771L60.4061 58.5149V67.6058L54.2602 68.5021Z" fill="#FAFAFF"/>
<path d="M60.6622 69.6545L59.3818 69.7825L59.894 76.6967H61.1744L60.6622 69.6545Z" fill="#FAFAFF"/>
<path d="M87.9024 66.1026L87.3359 57.0393C87.3141 56.6904 86.9613 56.4619 86.6341 56.5847C86.4171 56.666 86.2801 56.8811 86.2981 57.1121L87.0036 66.1657C87.0219 66.4002 87.2175 66.5812 87.4527 66.5812C87.7126 66.5812 87.9186 66.3619 87.9024 66.1026Z" fill="#FAFAFF"/>
<path d="M52.0849 36.6199L51.9568 33.4189L54.3896 33.0348V35.9797L52.0849 36.6199Z" fill="#561598"/>
<path d="M52.7241 57.618L53.8764 39.3081L52.468 39.6922L50.5474 58.0021L52.7241 57.618Z" fill="#FAFAFF"/>
<path d="M55.541 41.3568L55.4129 43.4054L57.4616 46.6064L59.6383 45.8382L55.541 41.3568Z" fill="#FAFAFF"/>
<path d="M61.815 49.5514L59.3822 50.4477L63.3515 55.3132L65.4001 54.1609L61.815 49.5514Z" fill="#FAFAFF"/>
<path d="M68.3441 75.9282L71.5451 57.2343L70.1366 57.4903L66.0393 76.1843L68.3441 75.9282Z" fill="#FAFAFF"/>
<path d="M72.6975 59.7951L72.3133 61.9718L74.362 66.1971H76.1546L72.6975 59.7951Z" fill="#FAFAFF"/>
<path d="M77.8191 69.1421L75.5144 69.5262L78.9715 74.6478L80.764 73.7515L77.8191 69.1421Z" fill="#FAFAFF"/>
<path d="M76.4783 62.2744L74.0869 57.9471C74.0208 57.8276 73.885 57.7646 73.7511 57.7914C73.5445 57.8327 73.4367 58.0619 73.5365 58.2474L75.8805 62.6005C75.9626 62.7529 76.146 62.8195 76.3067 62.7552C76.4969 62.6791 76.5773 62.4537 76.4783 62.2744Z" fill="#FAFAFF"/>
<path d="M63.2163 63.2062L63.1465 59.6805C63.1437 59.5389 63.0475 59.4161 62.9106 59.3795C62.7086 59.3256 62.5104 59.4778 62.5104 59.6868L62.5104 63.2132C62.5104 63.3841 62.6328 63.5305 62.8011 63.5607C63.0203 63.5999 63.2207 63.4289 63.2163 63.2062Z" fill="#FAFAFF"/>
<path d="M60.5012 43.5942L58.7208 40.1522C58.6585 40.0317 58.5239 39.967 58.3908 39.9936C58.1867 40.0344 58.0829 40.2635 58.1868 40.4439L60.1203 43.8022C60.2203 43.9758 60.4819 43.9329 60.5212 43.7365C60.5309 43.6882 60.5238 43.638 60.5012 43.5942Z" fill="#FAFAFF"/>
<path d="M77.4016 64.1686C77.2735 63.9125 77.0174 63.4004 76.7614 63.5284C76.6333 63.6564 76.6333 63.7845 76.7614 64.0406C76.8894 64.2966 77.1455 64.8088 77.4016 64.8088C77.6576 64.8088 77.5296 64.4247 77.4016 64.1686Z" fill="#FAFAFF"/>
<path d="M63.2231 66.0689C63.223 65.7826 63.2533 64.9164 62.967 64.9165C62.7952 64.9738 62.7108 65.5264 62.7109 65.8127C62.711 66.0991 62.8182 67.175 63.0473 67.2895C63.2764 67.4039 63.2232 66.3552 63.2231 66.0689Z" fill="#FAFAFF"/>
<path d="M61.302 44.8143C61.174 44.5582 61.142 44.4504 60.8859 44.5784C60.7578 44.7065 60.7578 44.8143 60.8859 45.0704C61.0139 45.3265 61.0459 45.3265 61.302 45.3265C61.5581 45.3265 61.4301 45.0704 61.302 44.8143Z" fill="#FAFAFF"/>
<path d="M84.3478 37.9C84.3478 34.0076 86.7379 31.5834 87.9329 30.8578C86.4391 31.0285 82.8113 32.9064 82.8113 38.4122C82.8113 44.0609 86.9513 46.4788 89.2133 46.9909C85.2441 44.4301 84.3478 42.7656 84.3478 37.9Z" fill="#FAFAFF"/>
<path d="M93.951 35.8515C93.8486 33.598 91.1768 33.2907 89.8537 33.4187C91.5183 33.5468 92.2865 34.0589 92.7987 34.5711C93.2084 34.9808 93.2255 35.5954 93.1828 35.8515H93.951Z" fill="#FAFAFF"/>
<path d="M95.2334 43.7899C94.9773 43.2778 94.4652 42.6375 94.7213 42.3815C95.3615 42.7656 96.3858 44.4301 96.1297 44.4301C95.8736 44.4301 95.4895 44.3021 95.2334 43.7899Z" fill="#FAFAFF"/>
<path d="M96.1297 35.0831C95.9248 33.6491 94.8493 32.6077 94.3371 32.2662C93.8249 32.6504 95.2334 33.9308 95.4895 35.0831C95.7455 36.2355 95.7456 37.5159 96.1297 37.644C96.5138 37.772 96.3858 36.8757 96.1297 35.0831Z" fill="#FAFAFF"/>
<path d="M47.985 68.8859L44.912 69.7822L47.985 71.4467V68.8859Z" fill="#00A3FF"/>
</svg>
