<svg width="48" height="63" viewBox="0 0 48 63" fill="none" xmlns="http://www.w3.org/2000/svg">
<g clip-path="url(#clip0_0_352)">
<path d="M14.4106 0.403809H33.2376L40.5228 10.2019H7.84607L14.4106 0.403809Z" fill="#D72434"/>
<path d="M23.8243 20.1311L14.4109 0.403809L4.75085 5.63746L14.2876 23.9546L23.8243 20.1311Z" fill="#E85E45"/>
<path d="M23.8241 20.131L33.2376 0.403687L42.8988 5.63733L33.3621 23.9545L23.8241 20.131Z" fill="#E85E45"/>
<path d="M15.5616 62.5547L2.90298 51.9123L0.0326538 35.6064L8.29523 21.2677L23.8242 15.6044L39.3544 21.2677L47.617 35.6064L44.7467 51.9123L32.088 62.5547H15.5616Z" fill="#FFC80D"/>
<path d="M17.5289 56.9644L7.88521 48.8562L5.69788 36.433L11.9932 25.5095L23.8242 21.1946L35.6552 25.5095L41.9506 36.433L39.7645 48.8562L30.1196 56.9644H17.5289Z" fill="#FC9E15"/>
<path d="M19.3099 32.4495C19.1678 32.4835 18.9917 32.2365 18.9213 32.0601C18.886 31.9895 18.886 31.919 18.9565 31.8837L26.7549 28.7029C26.8107 28.6782 26.8713 28.6665 26.9323 28.6689C26.9721 28.6695 27.0114 28.6785 27.0476 28.6952C27.0839 28.7118 27.1163 28.7358 27.1427 28.7657C27.1692 28.7955 27.1892 28.8306 27.2015 28.8686C27.2138 28.9066 27.218 28.9467 27.214 28.9865C27.214 29.4452 26.8971 38.2427 26.8971 40.2225C26.8618 43.2255 26.7549 48.1366 26.7549 48.56C26.7549 48.8788 27.1436 48.9494 27.3901 49.02L29.2945 49.272C29.4001 49.3073 29.5058 49.5543 29.5058 49.6955C29.5058 49.7673 29.5058 49.8026 29.4001 49.8026C28.3071 49.7673 26.6493 49.7307 24.6041 49.7307C22.5589 49.7307 20.6193 49.7673 19.808 49.8026C19.7376 49.8026 19.7376 49.7673 19.7376 49.6955C19.7376 49.5896 19.808 49.3073 19.9489 49.272L21.9941 48.9897C22.2067 48.9545 22.4532 48.8839 22.4532 48.6003C22.4884 47.6111 22.3828 41.7813 22.3475 40.5451C22.3123 38.7808 22.2419 33.866 22.1362 32.418C22.101 32.1357 21.9237 31.9593 21.7124 31.9946L19.3099 32.4495Z" fill="#FC6C00"/>
<path d="M18.5604 32.1433C18.4195 32.1786 18.2434 31.9316 18.173 31.7551C18.1378 31.6846 18.1378 31.614 18.2082 31.5787L26.0066 28.3979C26.0616 28.3722 26.1221 28.36 26.1827 28.3627C26.2228 28.3633 26.2622 28.3723 26.2986 28.389C26.335 28.4058 26.3675 28.4299 26.3941 28.4598C26.4207 28.4898 26.4408 28.525 26.4531 28.5631C26.4655 28.6013 26.4697 28.6416 26.4657 28.6815C26.4657 29.1402 26.1475 37.9377 26.1475 39.9163C26.1073 42.9231 26.0029 47.8379 26.0029 48.2551C26.0029 48.5739 26.3903 48.6445 26.6381 48.715L28.5424 48.9671C28.6481 49.0024 28.7537 49.2494 28.7537 49.3905C28.7537 49.4611 28.7537 49.4964 28.648 49.4964C27.555 49.4611 25.8972 49.4258 23.852 49.4258C21.8068 49.4258 19.8672 49.4611 19.056 49.4964C18.9855 49.4964 18.9855 49.4611 18.9855 49.3905C18.9855 49.2846 19.056 49.0024 19.1968 48.9671L21.242 48.6848C21.4534 48.6495 21.6999 48.5789 21.6999 48.2954C21.7364 47.3061 21.6294 41.4764 21.5942 40.2401C21.559 38.4758 21.4886 33.561 21.3829 32.113C21.3477 31.8307 21.1716 31.6543 20.9603 31.6896L18.5604 32.1433Z" fill="#FECB11"/>
</g>
<defs>
<clipPath id="clip0_0_352">
<rect width="47.5844" height="62.151" fill="white" transform="translate(0.0326538 0.403809)"/>
</clipPath>
</defs>
</svg>
