<svg width="93" height="98" viewBox="0 0 93 98" fill="none" xmlns="http://www.w3.org/2000/svg">
<g clip-path="url(#clip0_0_339)">
<path d="M64.719 80.5697H28.5071V97.9269H64.719V80.5697Z" fill="#FFC80D"/>
<path d="M45.4588 58.6185C45.4588 58.6185 45.9688 75.9809 30.667 78.0175H46.6141V58.6185H45.4588Z" fill="#F98200"/>
<path d="M47.7695 58.6185C47.7695 58.6185 47.2595 75.9809 62.5596 78.0175H46.6142V58.6185H47.7695Z" fill="#F98200"/>
<path d="M62.5611 78.0178H30.6686V80.5701H62.5611V78.0178Z" fill="#FC9E15"/>
<path d="M46.6558 51.7275H41.3962C41.3962 51.7275 39.1116 60.6657 46.6558 60.6657V51.7275Z" fill="#FC9E15"/>
<path d="M46.6019 51.7275H51.8615C51.8615 51.7275 54.1461 60.6657 46.6019 60.6657V51.7275Z" fill="#FC9E15"/>
<path d="M21.631 46.0103C21.0582 46.0206 20.4919 45.8882 19.983 45.6249C19.5855 45.42 19.2579 45.1015 19.0417 44.7098C18.8255 44.3181 18.7305 43.8709 18.7687 43.4251C18.8797 41.6281 19.983 41.1888 20.3161 41.0968C20.6233 41.0062 20.951 41.0138 21.2536 41.1187C21.5563 41.2236 21.8186 41.4205 22.0039 41.6819C22.3075 42.1281 22.4237 42.8834 21.8409 43.6612C21.7471 43.7866 21.6253 43.8882 21.4853 43.9581C22.1373 43.9791 22.7779 43.7831 23.3067 43.4008C24.0231 42.8799 24.2938 42.1333 24.1081 41.2044C23.8184 39.6141 22.9043 39.2946 21.029 38.7911C20.5954 38.6747 20.1461 38.5532 19.6846 38.3987C7.80887 34.4366 0.861382 26.0905 0.627197 15.5012C0.627197 11.1606 2.80945 1.69641 9.30071 1.69641C10.4873 1.69641 11.4118 2.01935 12.0485 2.66002C13.1327 3.7469 13.1292 5.43799 13.1257 7.0579C13.1257 9.75948 13.2489 11.4384 15.8614 11.9194L15.9151 11.9315C17.0271 12.2006 17.9812 12.0461 18.5987 11.4975C19.2163 10.9488 19.4539 10.0859 19.329 9.00596C19.2423 8.2507 18.9439 7.00235 18.0211 7.06832C17.4278 7.1152 17.0271 7.58919 17.0323 7.72809C17.0531 7.76184 17.0802 7.7913 17.1121 7.8149C17.3103 7.99442 17.4302 8.24466 17.446 8.51176C17.4617 8.77886 17.3721 9.04148 17.1963 9.2431C17.0206 9.44472 16.7728 9.56922 16.5062 9.58981C16.2397 9.6104 15.9757 9.52544 15.7712 9.35321C15.4009 9.05123 15.144 8.63253 15.0422 8.1655C14.9404 7.69846 14.9999 7.21069 15.2108 6.78184C15.7677 5.59946 17.2457 4.84246 18.5796 5.06123C19.2995 5.18103 21.0082 5.77829 21.3552 8.7733C21.5564 10.5356 21.0585 12.0461 19.9501 13.0271C18.8416 14.008 17.2318 14.3431 15.4606 13.923C11.0771 13.1017 11.077 9.46432 11.077 7.0579C11.077 5.84253 11.077 4.59244 10.5965 4.1063C10.3554 3.86496 9.91654 3.74343 9.29204 3.74343C4.66385 3.74343 2.66026 11.5183 2.66026 15.4839C2.95516 28.7088 13.8543 34.3081 20.3248 36.4663C20.7307 36.6017 21.1505 36.7163 21.5564 36.8257C23.442 37.3361 25.5774 37.9143 26.1065 40.819C26.4431 42.5014 25.8619 44.0467 24.5106 45.0433C23.6748 45.658 22.6681 45.9961 21.631 46.0103V46.0103Z" fill="#FC9E15"/>
<path d="M71.6267 46.0101C70.5878 45.9987 69.5785 45.6624 68.7402 45.0482C67.3888 44.0516 66.8077 42.5063 67.1477 40.8066C67.6681 37.9123 69.8087 37.3341 71.6944 36.8236C72.1003 36.7143 72.5201 36.5997 72.9243 36.4643C79.3965 34.3061 90.2956 28.7068 90.5887 15.4558C90.5887 11.5128 88.5869 3.73795 83.9587 3.73795C83.3325 3.73795 82.8936 3.85949 82.6542 4.10083C82.1685 4.58871 82.1702 5.83707 82.172 7.05243C82.172 9.45885 82.1858 13.0963 77.7953 13.9245C76.0259 14.3446 74.4352 14.0269 73.3076 13.0285C72.1801 12.0302 71.6996 10.5371 71.9025 8.77477C72.2495 5.77977 73.9582 5.1825 74.6781 5.0627C76.0155 4.84393 77.4918 5.60094 78.0469 6.78332C78.2587 7.21184 78.3187 7.69967 78.2172 8.16685C78.1158 8.63403 77.8587 9.05286 77.4883 9.35468C77.3878 9.44567 77.2702 9.51571 77.1424 9.56071C77.0146 9.60571 76.8791 9.62477 76.7438 9.61678C76.6085 9.60878 76.4762 9.57389 76.3546 9.51415C76.2329 9.4544 76.1244 9.371 76.0353 9.26881C75.9462 9.16662 75.8784 9.04768 75.8358 8.91896C75.7931 8.79023 75.7765 8.65429 75.787 8.51907C75.7974 8.38386 75.8346 8.25207 75.8965 8.13142C75.9584 8.01077 76.0437 7.90368 76.1473 7.81638C76.1805 7.7926 76.2074 7.76099 76.2254 7.72435C76.2254 7.58893 75.8299 7.11667 75.2384 7.06979C74.2982 6.99513 74.0241 8.25217 73.9287 9.00743C73.8055 10.0874 74.064 10.9728 74.659 11.4989C75.254 12.025 76.2306 12.1934 77.3443 11.933L77.3963 11.9208C80.0088 11.4364 80.1389 9.75748 80.132 7.05937C80.132 5.43252 80.132 3.74838 81.2092 2.66149C81.8476 2.02082 82.7704 1.69788 83.9587 1.69788C90.4465 1.69788 92.6322 11.1621 92.6322 15.4801C92.3963 26.092 85.4506 34.4381 73.5731 38.3984C73.1134 38.5529 72.6641 38.6745 72.2287 38.7908C70.3534 39.2995 69.441 39.6138 69.1548 41.1868C68.9657 42.1331 69.2346 42.871 69.9527 43.4005C70.4811 43.7825 71.121 43.9784 71.7724 43.9578C71.631 43.8879 71.5084 43.7848 71.4151 43.6575C70.8305 42.8796 70.9484 42.1244 71.252 41.6782C71.4376 41.417 71.6999 41.2203 72.0024 41.1154C72.305 41.0105 72.6327 41.0027 72.9399 41.0931C73.2747 41.1851 74.3745 41.6244 74.4855 43.4214C74.5238 43.8672 74.4288 44.3144 74.2126 44.7061C73.9963 45.0978 73.6687 45.4163 73.2712 45.6211C72.7637 45.8851 72.1986 46.0188 71.6267 46.0101V46.0101Z" fill="#FC9E15"/>
<path d="M46.7563 0.927002H21.5095C21.5095 0.927002 10.5427 53.2589 46.7563 53.2589V0.927002Z" fill="#FFC80D"/>
<path d="M46.5012 0.927002H71.748C71.748 0.927002 82.7131 53.2589 46.5012 53.2589V0.927002Z" fill="#FFC80D"/>
<path d="M63.5464 10.8878C66.5717 13.2265 70.9606 9.30783 68.2839 6.32671C64.9238 2.58165 59.8602 8.0369 63.5464 10.8878Z" fill="#FFD869"/>
<path d="M64.5595 18.9957C66.7591 20.6954 69.9492 17.8463 68.0046 15.6777C65.5604 12.957 61.8811 16.9226 64.5595 18.9957Z" fill="#FFD869"/>
</g>
<defs>
<clipPath id="clip0_0_339">
<rect width="92" height="97" fill="white" transform="translate(0.628784 0.927002)"/>
</clipPath>
</defs>
</svg>
