<svg width="27" height="27" viewBox="0 0 27 27" fill="none" xmlns="http://www.w3.org/2000/svg">
<path d="M12.6027 1.19121C12.902 0.269901 14.2054 0.269901 14.5048 1.19121L16.9865 8.82916C17.1204 9.24118 17.5043 9.52014 17.9376 9.52014H25.9686C26.9373 9.52014 27.3401 10.7598 26.5564 11.3292L20.0591 16.0497C19.7086 16.3043 19.562 16.7557 19.6959 17.1677L22.1776 24.8056C22.4769 25.727 21.4224 26.4931 20.6387 25.9237L14.1415 21.2032C13.791 20.9485 13.3164 20.9485 12.9659 21.2032L6.46871 25.9237C5.685 26.4931 4.63052 25.727 4.92987 24.8056L7.41159 17.1677C7.54546 16.7557 7.39881 16.3043 7.04832 16.0497L0.551095 11.3292C-0.232619 10.7598 0.170157 9.52014 1.13888 9.52014H9.16989C9.60312 9.52014 9.98707 9.24118 10.1209 8.82916L12.6027 1.19121Z" fill="#FFCB2A"/>
</svg>
